<?xml version="1.0" encoding="UTF-8" standalone="no"?>
<!DOCTYPE svg PUBLIC "-//W3C//DTD SVG 1.1//EN"
 "http://www.w3.org/Graphics/SVG/1.1/DTD/svg11.dtd">
<!-- Generated by graphviz version 2.26.3 (20100126.1600)
 -->
<!-- Title: Finite_Automata_Graph Pages: 1 -->
<svg width="52pt" height="316pt"
 viewBox="0.00 0.00 52.00 316.00" xmlns="http://www.w3.org/2000/svg" xmlns:xlink="http://www.w3.org/1999/xlink">
<g id="graph1" class="graph" transform="scale(1 1) rotate(0) translate(4 312)">
<title>Finite_Automata_Graph</title>
<polygon fill="white" stroke="white" points="-4,5 -4,-312 49,-312 49,5 -4,5"/>
<!-- 0 -->
<g id="node1" class="node"><title>0</title>
<ellipse fill="none" stroke="#000000" cx="22" cy="-290" rx="18" ry="18"/>
<text text-anchor="middle" x="22" y="-285.4" font-family="Times Roman,serif" font-size="14.00">0</text>
</g>
<!-- 1 -->
<g id="node2" class="node"><title>1</title>
<ellipse fill="none" stroke="#000000" cx="22" cy="-202" rx="18" ry="18"/>
<text text-anchor="middle" x="22" y="-197.4" font-family="Times Roman,serif" font-size="14.00">1</text>
</g>
<!-- 0&#45;&gt;1 -->
<g id="edge2" class="edge"><title>0&#45;&gt;1</title>
<path fill="none" stroke="black" d="M22,-271.766C22,-259.849 22,-244.038 22,-230.482"/>
<polygon fill="black" stroke="black" points="25.5001,-230.21 22,-220.21 18.5001,-230.21 25.5001,-230.21"/>
<text text-anchor="middle" x="26" y="-241.4" font-family="Times Roman,serif" font-size="14.00">ε</text>
</g>
<!-- 2 -->
<g id="node3" class="node"><title>2</title>
<ellipse fill="none" stroke="#000000" cx="22" cy="-114" rx="18" ry="18"/>
<text text-anchor="middle" x="22" y="-109.4" font-family="Times Roman,serif" font-size="14.00">2</text>
</g>
<!-- 1&#45;&gt;2 -->
<g id="edge4" class="edge"><title>1&#45;&gt;2</title>
<path fill="none" stroke="black" d="M13.7167,-185.943C11.0108,-179.863 8.35443,-172.772 7,-166 5.27076,-157.354 6.825,-148.059 9.4878,-139.753"/>
<polygon fill="black" stroke="black" points="12.8301,-140.812 13.1394,-130.222 6.29337,-138.307 12.8301,-140.812"/>
<text text-anchor="middle" x="11.5" y="-153.4" font-family="Times Roman,serif" font-size="14.00">x</text>
</g>
<!-- 2&#45;&gt;1 -->
<g id="edge6" class="edge"><title>2&#45;&gt;1</title>
<path fill="none" stroke="black" d="M22,-132.21C22,-144.122 22,-159.932 22,-173.492"/>
<polygon fill="black" stroke="black" points="18.5001,-173.766 22,-183.766 25.5001,-173.766 18.5001,-173.766"/>
<text text-anchor="middle" x="26" y="-153.4" font-family="Times Roman,serif" font-size="14.00">ε</text>
</g>
<!-- 3 -->
<g id="node4" class="node"><title>3</title>
<ellipse fill="none" stroke="#000000" cx="22" cy="-22" rx="18" ry="18"/>
<ellipse fill="none" stroke="#000000" cx="22" cy="-22" rx="22" ry="22"/>
<text text-anchor="middle" x="22" y="-17.4" font-family="Times Roman,serif" font-size="14.00">3</text>
</g>
<!-- 2&#45;&gt;3 -->
<g id="edge8" class="edge"><title>2&#45;&gt;3</title>
<path fill="none" stroke="black" d="M22,-95.8238C22,-83.9726 22,-68.1746 22,-54.2345"/>
<polygon fill="black" stroke="black" points="25.5001,-54.0326 22,-44.0326 18.5001,-54.0327 25.5001,-54.0326"/>
<text text-anchor="middle" x="26" y="-65.4" font-family="Times Roman,serif" font-size="14.00">ε</text>
</g>
</g>
</svg>
