<?xml version="1.0" encoding="UTF-8" standalone="no"?>
<!DOCTYPE svg PUBLIC "-//W3C//DTD SVG 1.1//EN"
 "http://www.w3.org/Graphics/SVG/1.1/DTD/svg11.dtd">
<!-- Generated by graphviz version 2.26.3 (20100126.1600)
 -->
<!-- Title: Finite_Automata_Graph Pages: 1 -->
<svg width="98pt" height="316pt"
 viewBox="0.00 0.00 98.00 316.00" xmlns="http://www.w3.org/2000/svg" xmlns:xlink="http://www.w3.org/1999/xlink">
<g id="graph1" class="graph" transform="scale(1 1) rotate(0) translate(4 312)">
<title>Finite_Automata_Graph</title>
<polygon fill="white" stroke="white" points="-4,5 -4,-312 95,-312 95,5 -4,5"/>
<!-- 0 -->
<g id="node1" class="node"><title>0</title>
<ellipse fill="none" stroke="#000000" cx="45" cy="-290" rx="18" ry="18"/>
<text text-anchor="middle" x="45" y="-285.4" font-family="Times Roman,serif" font-size="14.00">0</text>
</g>
<!-- 1 -->
<g id="node2" class="node"><title>1</title>
<ellipse fill="none" stroke="#000000" cx="18" cy="-202" rx="18" ry="18"/>
<text text-anchor="middle" x="18" y="-197.4" font-family="Times Roman,serif" font-size="14.00">1</text>
</g>
<!-- 0&#45;&gt;1 -->
<g id="edge2" class="edge"><title>0&#45;&gt;1</title>
<path fill="none" stroke="black" d="M39.6657,-272.614C35.8567,-260.2 30.6586,-243.258 26.3087,-229.08"/>
<polygon fill="black" stroke="black" points="29.6026,-227.883 23.3232,-219.35 22.9105,-229.937 29.6026,-227.883"/>
<text text-anchor="middle" x="38" y="-241.4" font-family="Times Roman,serif" font-size="14.00">ε</text>
</g>
<!-- 3 -->
<g id="node4" class="node"><title>3</title>
<ellipse fill="none" stroke="#000000" cx="72" cy="-202" rx="18" ry="18"/>
<text text-anchor="middle" x="72" y="-197.4" font-family="Times Roman,serif" font-size="14.00">3</text>
</g>
<!-- 0&#45;&gt;3 -->
<g id="edge4" class="edge"><title>0&#45;&gt;3</title>
<path fill="none" stroke="black" d="M50.3343,-272.614C54.1433,-260.2 59.3414,-243.258 63.6913,-229.08"/>
<polygon fill="black" stroke="black" points="67.0895,-229.937 66.6768,-219.35 60.3974,-227.883 67.0895,-229.937"/>
<text text-anchor="middle" x="64" y="-241.4" font-family="Times Roman,serif" font-size="14.00">ε</text>
</g>
<!-- 2 -->
<g id="node3" class="node"><title>2</title>
<ellipse fill="none" stroke="#000000" cx="18" cy="-114" rx="18" ry="18"/>
<text text-anchor="middle" x="18" y="-109.4" font-family="Times Roman,serif" font-size="14.00">2</text>
</g>
<!-- 1&#45;&gt;2 -->
<g id="edge6" class="edge"><title>1&#45;&gt;2</title>
<path fill="none" stroke="black" d="M18,-183.766C18,-171.849 18,-156.038 18,-142.482"/>
<polygon fill="black" stroke="black" points="21.5001,-142.21 18,-132.21 14.5001,-142.21 21.5001,-142.21"/>
<text text-anchor="middle" x="22.5" y="-153.4" font-family="Times Roman,serif" font-size="14.00">x</text>
</g>
<!-- 5 -->
<g id="node6" class="node"><title>5</title>
<ellipse fill="none" stroke="#000000" cx="47" cy="-22" rx="18" ry="18"/>
<ellipse fill="none" stroke="#000000" cx="47" cy="-22" rx="22" ry="22"/>
<text text-anchor="middle" x="47" y="-17.4" font-family="Times Roman,serif" font-size="14.00">5</text>
</g>
<!-- 2&#45;&gt;5 -->
<g id="edge8" class="edge"><title>2&#45;&gt;5</title>
<path fill="none" stroke="black" d="M23.4547,-96.6955C27.3473,-84.3464 32.6881,-67.4033 37.2991,-52.7753"/>
<polygon fill="black" stroke="black" points="40.6796,-53.6927 40.348,-43.1031 34.0034,-51.5882 40.6796,-53.6927"/>
<text text-anchor="middle" x="39" y="-65.4" font-family="Times Roman,serif" font-size="14.00">ε</text>
</g>
<!-- 4 -->
<g id="node5" class="node"><title>4</title>
<ellipse fill="none" stroke="#000000" cx="72" cy="-114" rx="18" ry="18"/>
<text text-anchor="middle" x="72" y="-109.4" font-family="Times Roman,serif" font-size="14.00">4</text>
</g>
<!-- 3&#45;&gt;4 -->
<g id="edge10" class="edge"><title>3&#45;&gt;4</title>
<path fill="none" stroke="black" d="M72,-183.766C72,-171.849 72,-156.038 72,-142.482"/>
<polygon fill="black" stroke="black" points="75.5001,-142.21 72,-132.21 68.5001,-142.21 75.5001,-142.21"/>
<text text-anchor="middle" x="76.5" y="-153.4" font-family="Times Roman,serif" font-size="14.00">y</text>
</g>
<!-- 4&#45;&gt;5 -->
<g id="edge12" class="edge"><title>4&#45;&gt;5</title>
<path fill="none" stroke="black" d="M67.1797,-96.2615C63.8686,-84.0766 59.3838,-67.5722 55.4829,-53.2171"/>
<polygon fill="black" stroke="black" points="58.7707,-51.9689 52.7708,-43.2366 52.0157,-53.8045 58.7707,-51.9689"/>
<text text-anchor="middle" x="65" y="-65.4" font-family="Times Roman,serif" font-size="14.00">ε</text>
</g>
</g>
</svg>
